<svg width="191" height="90" viewBox="0 0 191 90" fill="none" xmlns="http://www.w3.org/2000/svg">
<path fill-rule="evenodd" clip-rule="evenodd" d="M24.4135 0H32.312L45.8903 35.498H33.6404L28.3628 20.4382L20.8233 41.9522H31.594H35.9023H48.3593L56.7256 63.8247H43.4417L39.8515 53.7849H16.8741L13.2838 63.8247H0L24.4135 0Z" fill="#262026"/>
<path fill-rule="evenodd" clip-rule="evenodd" d="M64.265 45.5378V0H105.553V11.8327H76.4718V24.3825H91.7303C99.0902 24.3825 110.209 29.4744 110.04 44.1036C109.861 59.7012 98.3722 63.8247 91.7303 63.8247H64.265V51.992H76.4718H79.344H91.1917C91.1917 51.992 97.4746 51.992 97.4746 44.1036C97.4746 36.2151 91.1917 36.2151 91.1917 36.2151H76.4718V45.5378H64.265Z" fill="#262026"/>
<path fill-rule="evenodd" clip-rule="evenodd" d="M149.712 0H121.35V19.004H133.556V11.8331H148.276C148.276 11.8331 154.739 11.649 154.739 18.6454C154.739 25.6418 148.276 25.4577 148.276 25.4577H135.711V25.4582H121.35V63.8247H149.712C156.354 63.8247 167.843 63.8247 167.843 47.51C168.202 32.2709 155.457 31.1952 155.457 31.1952C155.457 31.1952 167.125 30.1195 167.125 16.3147C167.125 1.43426 155.636 0 149.712 0ZM133.556 36.9326H148.276C148.276 36.9326 155.636 36.7243 155.636 44.6414C155.636 52.5586 148.276 52.3502 148.276 52.3502H133.556V36.9326Z" fill="#262026"/>
<path d="M191 0H178.793V45.1793H191V0Z" fill="#262026"/>
<path d="M191 51.6335H178.793V63.8247H191V51.6335Z" fill="#262026"/>
<path d="M19.7 82.843C19.4954 84.0277 19.028 84.8973 18.2975 85.4516C17.5671 86.0002 16.7403 86.2745 15.817 86.2745C14.4671 86.2745 13.4241 85.8342 12.6878 84.9528C11.9515 84.0657 11.5834 82.8925 11.5834 81.4335C11.5834 80.2255 11.7938 79.2599 12.2145 78.5359C12.641 77.8066 13.1728 77.296 13.8097 77.0042C14.4467 76.7065 15.1158 76.5577 15.817 76.5577C16.7753 76.5577 17.5934 76.8055 18.2712 77.3018C18.9549 77.7977 19.3757 78.5273 19.5334 79.4901L18.0083 79.7267C17.8505 79.1021 17.5934 78.6324 17.2369 78.3172C16.8863 78.002 16.4364 77.8446 15.8871 77.8446C15.0047 77.8446 14.3357 78.1566 13.8799 78.7812C13.4241 79.4055 13.1962 80.2782 13.1962 81.3987C13.1962 82.5426 13.4182 83.4268 13.8623 84.051C14.3123 84.6696 14.958 84.979 15.7994 84.979C16.4773 84.979 17.0091 84.7865 17.3947 84.4014C17.7862 84.0102 18.0317 83.4268 18.131 82.6505L19.7 82.843Z" fill="#262026"/>
<path d="M50.3023 78.0809H47.3221V86.0558H45.7442V78.0809H42.7467V76.7679H50.3023V78.0809Z" fill="#262026"/>
<path d="M82.0438 76.7679L78.4852 86.2132C78.4795 86.225 78.4737 86.2455 78.4676 86.2745C78.1287 87.3251 77.7316 88.1771 77.2757 88.8307C76.8258 89.4901 76.1828 89.82 75.3473 89.82C75.0669 89.82 74.7252 89.7616 74.322 89.645L74.164 88.1566C74.4677 88.2502 74.7661 88.2968 75.058 88.2968C75.6425 88.2968 76.0456 88.1362 76.2675 87.8153C76.4955 87.4943 76.7497 86.9138 77.0301 86.0734L73.498 76.7679H75.1983L77.3895 82.8516C77.5184 83.2253 77.6555 83.7068 77.8016 84.2963H77.8368C77.9826 83.6193 78.1696 82.9743 78.3976 82.3615L80.4401 76.7679H82.0438Z" fill="#262026"/>
<path d="M114.68 88.6909H113.365V86.0558H106.064V88.6909H104.749V84.7427H105.573C106.087 84.0424 106.484 83.0356 106.765 81.7225C107.051 80.4037 107.194 78.901 107.194 77.2143V76.7679H113.672V84.7427H114.68V88.6909ZM112.094 84.7427V78.0809H108.5C108.377 81.0631 107.904 83.2837 107.08 84.7427H112.094Z" fill="#262026"/>
<path d="M146.632 86.0558H145.045V79.0089L140.671 86.0558H138.962V76.7679H140.54V83.8499L144.923 76.7679H146.632V86.0558Z" fill="#262026"/>
<path d="M178.917 86.0558H177.339V82.4318H176.13C175.616 82.4318 175.224 82.563 174.955 82.8255C174.686 83.0822 174.487 83.3041 174.359 83.491L172.632 86.0558H170.678C171.847 84.3282 172.507 83.3594 172.659 83.1496C172.81 82.9334 172.992 82.7498 173.202 82.5978C173.418 82.4461 173.658 82.3324 173.921 82.2564C173.056 82.1166 172.396 81.8043 171.94 81.3198C171.49 80.8354 171.265 80.2198 171.265 79.4729C171.265 78.65 171.554 77.9934 172.133 77.5029C172.717 77.0128 173.541 76.7679 174.605 76.7679H178.917V86.0558ZM177.339 81.1273V78.0809H174.806C173.526 78.0809 172.887 78.5653 172.887 79.5342C172.887 80.5963 173.675 81.1273 175.253 81.1273H177.339Z" fill="#262026"/>
</svg>
