<svg width="577" height="488" viewBox="0 0 577 488" fill="none" xmlns="http://www.w3.org/2000/svg">
<path d="M322.439 267.721C322.167 267.581 321.887 267.455 321.602 267.343C321.602 267.343 345.227 254.045 351.805 250.352C354.183 248.934 356.45 247.34 358.589 245.584C350.373 242.607 338.878 237.289 332.804 229.303C332.804 229.303 334.523 227.872 336.729 225.794L334.357 223.023C334.357 223.023 321.969 213.05 330.484 207.881C337.406 203.679 341.772 214.836 343.164 219.17L343.651 218.598C343.651 218.598 356.979 238.937 374.954 228.822C376.074 227.251 377.005 225.555 377.728 223.767C379.09 220.362 381.251 217.334 384.031 214.939L385.859 207.881L389.119 205.196C389.119 201.338 388.993 196.695 388.546 192.602C388.519 192.342 388.49 192.085 388.46 191.829C382.157 189.327 377.71 183.396 377.71 176.475C377.709 174.042 378.266 171.641 379.338 169.457C376.788 166.543 374.937 162.587 375.487 159.152C375.917 156.49 378.192 154.756 380.919 153.531C383.544 152.203 386.752 151.424 389.153 150.771C393.571 149.575 398.396 149.008 402.693 150.56C409.798 153.118 414.188 156.067 419.711 161.041C424.078 164.974 428.879 171.821 434.036 174.781C439.193 177.74 444.242 181.576 446.241 186.951C449.06 194.554 445.198 202.723 443.457 210.612C441.51 219.491 442.273 228.749 445.645 237.191C449.026 245.635 455.071 253.885 453.587 262.809C452.441 269.587 447.072 274.831 440.465 277.86C437.533 279.304 434.403 280.308 431.177 280.836C425.613 281.747 419.671 281.455 414.531 279.354C416.695 285.535 419.831 291.332 423.82 296.528C427.63 301.371 427.258 304.004 423.889 304.256C424.007 304.71 424.118 305.193 424.221 305.705C425.315 311.069 425.665 319.845 423.82 334.202C419.173 370.399 429.24 381.477 429.24 381.477C429.24 381.477 428.163 381.854 426.215 382.415C426.295 382.633 426.375 382.856 426.456 383.085C428.587 389.131 430.604 399.778 426.524 413.999C422.129 429.284 420.84 436.325 420.468 439.348V439.525C420.909 439.697 422.513 440.458 423.694 442.834C424.5 444.5 424.796 446.366 424.545 448.199C424.295 450.032 423.508 451.75 422.284 453.138V467.164H420.347V455.342C418.646 457.36 417.19 459.572 416.01 461.932C414.909 464.137 413.279 466.037 411.266 467.461C409.252 468.886 406.918 469.79 404.47 470.095C399.484 470.77 393.984 471.017 391.692 469.374C391.692 469.374 389.973 466.139 398.195 462.218L398.264 462.115C400.969 458.176 405.14 451.341 405.77 445.977C406.118 442.686 406.829 439.443 407.89 436.308C408.713 433.952 409.222 431.498 409.403 429.009C409.976 421.401 410.973 404.725 409.495 401.044C408.498 398.565 407.908 392.342 407.575 386.904C407.575 386.658 407.547 386.411 407.529 386.171C398.929 387.271 390.228 387.334 381.613 386.36V389.966C381.613 389.966 385.096 401.049 378.129 416.93C378.129 416.93 368.68 431.35 366.543 439.869C366.482 440.113 366.426 440.351 366.376 440.584C367.643 440.733 373.224 442.044 371.155 453.86L371.545 469.374H369.608L369.219 455.709C369.219 455.709 367.282 452.383 360.698 459.401C359.701 460.466 358.8 461.453 357.993 462.361C355.633 464.98 352.725 467.047 349.474 468.417C346.224 469.786 342.712 470.423 339.188 470.284C334.959 470.135 330.919 469.711 329.338 468.635C329.338 468.635 325.464 465.681 335.148 464.204L339.606 462.882H339.772L340.408 462.172C343.789 458.348 348.699 451.868 349.954 445.284C350.399 443.013 351.103 440.8 352.051 438.689L355.673 430.549L364.193 387.007C364.193 387.007 363.746 385.095 363.311 382.753C363.265 382.496 363.214 382.227 363.168 381.963L361.873 381.465C361.873 381.465 354.126 375.924 365.746 342.314C365.746 342.314 370.261 323.594 372.548 308.681L366.909 307.599C366.909 307.599 367.78 294.433 369.517 285.273C368.371 280.98 367.74 277.259 368.456 275.438C369.048 273.781 369.38 272.044 369.442 270.286C369.668 266.315 370.094 262.358 370.72 258.43L363.426 263.582L326.639 281.329C328.048 278.432 328.272 276.056 327.865 274.139C325.183 277.968 318.067 286.515 311.924 279.48C305.656 272.364 317.631 268.815 322.439 267.721Z" fill="url(#paint0_linear)"/>
<path d="M327.676 267.841C327.676 267.841 308.715 271.122 316.01 279.863C323.304 288.605 332.054 272.942 332.054 272.942L327.676 267.841Z" fill="#F8BDC5"/>
<path d="M390.758 211.379C390.758 211.379 381.28 215.752 377.997 224.855C374.714 233.957 359.764 247.439 353.57 251.085C347.376 254.732 325.132 267.841 325.132 267.841C325.132 267.841 334.609 271.482 329.871 281.684L364.509 264.2L380.18 252.545L390.758 211.379Z" fill="#3C3641"/>
<path opacity="0.1" d="M390.758 211.379C390.758 211.379 381.28 215.752 377.997 224.855C374.714 233.957 359.764 247.439 353.57 251.085C347.376 254.732 325.132 267.841 325.132 267.841C325.132 267.841 334.609 271.482 329.871 281.684L364.509 264.2L380.18 252.545L390.758 211.379Z" fill="black"/>
<path d="M243.663 1.414C243.663 1.414 285.423 -13.8251 329.83 55.9188C329.83 55.9188 348.499 94.8468 390.213 94.6922L394.683 84.5137L403.1 87.8169L290.219 345.428L281.704 342.698L334.867 220.681C317.23 219.33 277.928 206.644 242.081 127.569C242.081 127.569 209.879 67.5171 162.721 74.6157L243.663 1.414Z" fill="url(#paint1_linear)"/>
<path d="M397.078 95.8143L342.362 219.433C342.362 219.433 289.302 232.371 242.316 128.731C242.316 128.731 210.801 69.9902 164.686 76.9342L243.84 5.32398C243.84 5.32398 284.695 -9.56023 328.129 58.6438C328.134 58.6438 349.324 102.867 397.078 95.8143Z" fill="#F41E01"/>
<path d="M327.389 81.5426L324.731 88.9503L329.848 94.0282L323.883 93.2954L321.654 100.073L319.889 92.3794L314.337 91.9329L319.259 87.9428L318.118 80.6839L322.467 85.5384L327.389 81.5426Z" fill="#FFD037"/>
<path d="M316.227 59.3537L313.861 66.3435L318.336 71.9022L313.013 70.6828L310.159 77.0315L309.449 69.1486L303.627 68.204L308.675 64.9181L307.598 58.0084L311.179 62.6396L316.227 59.3537Z" fill="#FFD037"/>
<path d="M299.364 45.8491L296.803 51.7799L301.198 57.8996L295.949 56.1249L293.388 62.0557L291.686 54.7167L285.652 53.629L291.268 50.4174L289.354 42.9352L294.041 48.637L299.364 45.8491Z" fill="#FFD037"/>
<path d="M280.518 45.4541L277.951 51.3849L283.28 56.6115L277.183 55.1689L274.828 61.2428L272.914 53.7606L266.737 52.8848L271.774 50.509L270.009 42.815L275.189 48.2478L280.518 45.4541Z" fill="#FFD037"/>
<path d="M264.846 56.5027L262.285 62.4335L267.608 67.6602L261.512 66.2176L259.157 72.2915L257.248 64.8093L251.072 63.9334L256.108 61.5577L254.338 53.8637L259.523 59.2964L264.846 56.5027Z" fill="#FFD037"/>
<path d="M256.464 73.5108L253.902 79.4416L259.225 84.6683L253.134 83.2256L250.774 89.2995L248.866 81.8174L242.689 80.9415L247.725 78.5657L245.955 70.8717L251.14 76.3045L256.464 73.5108Z" fill="#FFD037"/>
<path d="M260.503 100.646L257.65 106.995L262.721 114.815L256.578 112.107L253.948 117.683L252.676 109.72L246.178 107.075L251.92 104.573L250.716 96.9649L254.63 102.443L260.503 100.646Z" fill="#FFD037"/>
<path d="M269.706 126.109L267.477 132.887L271.923 140.272L265.987 137.713L263.489 143.999L262.297 135.469L256.716 132.847L261.752 130.472L260.417 122.154L264.606 128.13L269.706 126.109Z" fill="#FFD037"/>
<path d="M287.308 141.663L285.005 149.002L290.379 155.494L285.056 154.275L282.696 160.354L280.931 152.66L275.413 150.388L279.756 147.228L278.564 138.704L282.61 144.886L287.308 141.663Z" fill="#FFD037"/>
<path d="M305.484 144.365L303.387 151.848L309.008 156.656L303.312 156.416L301.662 162.364L299.461 155.294L293.221 154.063L297.788 150.136L296.711 143.226L300.785 147.588L305.484 144.365Z" fill="#FFD037"/>
<path d="M321.975 130.798L319.809 137.931L326.696 142.688L319.442 142.917L318.05 150.273L315.305 142.213L308.486 141.812L313.615 137.965L311.449 129.069L317.545 134.519L321.975 130.798Z" fill="#FFD037"/>
<path d="M328.444 106.308L326.278 113.441L333.165 118.198L325.911 118.421L324.519 125.783L321.774 117.717L314.955 117.322L320.089 113.475L317.918 104.579L324.015 110.023L328.444 106.308Z" fill="#FFD037"/>
<path d="M399.823 89.8491L289.801 340.906L281.475 338.232L391.571 86.6147L399.823 89.8491Z" fill="#F0F5FA"/>
<path d="M345.909 221.941C345.909 221.941 341.531 204.091 333.509 209.192C325.487 214.293 337.153 224.128 337.153 224.128L340.437 228.135L345.909 221.941Z" fill="#F8BDC5"/>
<path d="M389.806 205.608L385.652 209.192L383.899 216.302L386.747 214.653V209.192L389.812 208.826L389.806 205.608Z" fill="#DEDFF7"/>
<path opacity="0.1" d="M389.806 205.608L385.652 209.192L383.899 216.302L386.747 214.653V209.192L389.812 208.826L389.806 205.608Z" fill="black"/>
<path d="M377.447 277.676L375.023 309.008L367.775 307.548C367.775 307.548 369.385 282.05 372.605 277.676C375.825 273.303 377.447 277.676 377.447 277.676Z" fill="#3C3641"/>
<path opacity="0.1" d="M377.447 277.676L375.023 309.008L367.775 307.548C367.775 307.548 369.385 282.05 372.605 277.676C375.825 273.303 377.447 277.676 377.447 277.676Z" fill="black"/>
<path d="M395.135 463.099L406.802 464.92L413.363 459.819L418.101 444.883V439.411C418.092 438.755 418.136 438.101 418.233 437.453C418.583 434.493 419.797 427.532 423.963 412.453C427.808 398.445 425.905 387.946 423.9 381.986C423.286 380.034 422.452 378.157 421.413 376.393H405.736C405.736 376.393 405.822 380.738 406.114 385.759C406.429 391.123 406.979 397.265 407.925 399.71C409.323 403.339 408.366 419.786 407.839 427.291C407.667 429.739 407.188 432.154 406.412 434.482C405.41 437.581 404.739 440.778 404.412 444.019C403.839 449.314 399.891 456.041 397.347 459.939C396.052 461.874 395.135 463.099 395.135 463.099Z" fill="#F8BDC5"/>
<path d="M339.709 463.454L344.815 464.914L354.659 460.907L367.058 447.797V440.515C367.113 439.669 367.246 438.83 367.454 438.008C369.465 429.604 378.341 415.384 378.341 415.384C384.902 399.721 381.624 388.793 381.624 388.793V377.492C381.624 377.492 364.486 371.665 363.758 373.851C363.351 375.076 363.861 378.723 364.382 381.677C364.795 383.967 365.213 385.867 365.213 385.867L357.191 428.854L353.782 436.869C352.888 438.958 352.227 441.139 351.811 443.372C350.625 449.847 346.001 456.253 342.82 460.025C341.044 462.172 339.709 463.454 339.709 463.454Z" fill="#F8BDC5"/>
<path opacity="0.1" d="M395.135 463.099L406.802 464.92L413.363 459.819L418.101 444.883V439.411C418.092 438.756 418.136 438.101 418.233 437.453C418.075 437.36 417.908 437.283 417.735 437.224C417.735 437.224 416.273 442.691 417.007 445.238C417.58 447.271 412.612 454.862 410.566 457.833C409.556 459.36 408.085 460.527 406.366 461.164C402.384 462.573 398.562 460.672 397.313 459.939C396.052 461.874 395.135 463.099 395.135 463.099Z" fill="black"/>
<path d="M397.25 460.02C397.25 460.02 401.868 463.237 406.733 461.514C408.448 460.883 409.919 459.724 410.933 458.205C412.979 455.211 417.958 447.62 417.374 445.61C416.646 443.063 418.101 437.596 418.101 437.596C418.101 437.596 419.952 438.168 421.253 440.905C422.015 442.554 422.295 444.385 422.06 446.186C421.825 447.987 421.084 449.685 419.923 451.083V464.914H418.101V453.27C416.492 455.27 415.121 457.451 414.016 459.768C413.02 461.912 411.502 463.773 409.6 465.18C407.698 466.586 405.473 467.493 403.129 467.817C398.436 468.481 393.256 468.727 391.096 467.107C391.124 467.107 389.52 463.918 397.25 460.02Z" fill="#3C3641"/>
<path opacity="0.1" d="M339.709 463.454L344.814 464.914L354.659 460.907L367.058 447.797V440.515C367.113 439.669 367.246 438.83 367.454 438.008C367.323 437.985 367.191 437.972 367.058 437.968C367.058 439.863 363.827 444.374 361.558 447.299C360.375 448.836 359.272 450.431 358.251 452.079C353.53 459.682 345.353 460.094 342.838 460.048C341.044 462.172 339.709 463.454 339.709 463.454Z" fill="black"/>
<path d="M367.058 438.689C367.058 438.689 373.986 438.689 371.797 451.805L372.158 467.107H370.336L369.969 453.631C369.969 453.631 368.147 450.35 361.947 457.272C361.007 458.321 360.158 459.294 359.397 460.191C357.23 462.749 354.51 464.781 351.442 466.134C348.373 467.488 345.038 468.128 341.686 468.005C337.709 467.857 333.899 467.433 332.409 466.38C332.409 466.38 328.765 463.466 337.881 462.006L342.076 460.729C342.076 460.729 352.613 461.874 358.246 452.801C359.266 451.144 360.372 449.541 361.558 447.998C363.821 445.095 367.058 440.584 367.058 438.689Z" fill="#3C3641"/>
<path opacity="0.1" d="M421.385 376.399H405.707C405.707 376.399 405.793 380.744 406.085 385.764C412.1 384.995 418.041 383.733 423.849 381.992C423.242 380.04 422.415 378.164 421.385 376.399Z" fill="black"/>
<path opacity="0.1" d="M364.405 381.677C369.955 383.804 375.746 385.243 381.647 385.959V377.492C381.647 377.492 364.508 371.665 363.781 373.851C363.368 375.076 363.878 378.729 364.405 381.677Z" fill="black"/>
<path d="M363.047 380.406C392.947 392.794 426.49 380.406 426.49 380.406C426.49 380.406 417.013 369.478 421.385 333.778C423.104 319.621 422.794 310.966 421.763 305.67C420.198 297.616 417.013 297.352 417.013 297.352L373.986 292.252C374.37 293.711 374.393 296.173 374.181 299.236C373.155 313.742 366.697 341.793 366.697 341.793C355.753 374.945 363.047 380.406 363.047 380.406Z" fill="#3C3641"/>
<path d="M386.019 185.148C387.131 186.814 387.801 190.215 388.202 194.13C389.102 203.049 388.575 214.653 388.575 214.653C388.575 214.653 410.818 226.675 405.713 211.012C402.759 201.336 403.671 190.893 408.257 181.874C408.257 181.874 382.369 179.687 386.019 185.148Z" fill="#F8BDC5"/>
<path opacity="0.1" d="M386.019 185.148C387.131 186.814 387.801 190.215 388.202 194.13C390.942 195.246 393.933 195.601 396.858 195.157C399.783 194.714 402.534 193.489 404.819 191.611C405.508 188.224 406.665 184.948 408.257 181.879C408.257 181.879 382.369 179.687 386.019 185.148Z" fill="black"/>
<path d="M394.408 194.622C385.344 194.622 377.997 187.282 377.997 178.227C377.997 169.172 385.344 161.831 394.408 161.831C403.471 161.831 410.818 169.172 410.818 178.227C410.818 187.282 403.471 194.622 394.408 194.622Z" fill="#F8BDC5"/>
<path opacity="0.1" d="M374.181 299.236C376.181 304.72 377.997 309.008 377.997 309.008C377.997 309.008 395.135 294.433 408.257 301.36C414.451 304.623 419.178 306.025 421.757 305.67C420.193 297.616 417.007 297.352 417.007 297.352L373.98 292.252C374.37 293.711 374.393 296.167 374.181 299.236Z" fill="black"/>
<path d="M377.997 307.548C377.997 307.548 395.135 292.979 408.257 299.9C421.379 306.821 427.945 305.367 421.385 296.619C414.824 287.872 406.068 269.295 412.635 255.453C419.201 241.611 421.751 219.754 416.646 213.926C411.54 208.098 406.802 201.538 406.802 200.084C406.802 200.084 388.208 213.56 384.558 219.027C383.509 220.595 381.796 224.603 379.894 229.52C378.868 232.177 377.779 235.096 376.708 238.039C375.032 242.654 373.673 247.379 372.639 252.179C371.329 258.306 370.504 264.527 370.17 270.784C370.111 272.511 369.798 274.22 369.241 275.856C367.058 281.684 377.997 307.548 377.997 307.548Z" fill="#3C3641"/>
<path d="M385.652 209.558L386.082 217.161L407.134 201.132C407.134 201.132 407.535 197.914 402.063 201.189C396.591 204.463 385.652 209.558 385.652 209.558Z" fill="#DEDFF7"/>
<path opacity="0.1" d="M372.645 252.179C391.904 252.534 413.729 231.049 413.729 231.049C421.385 210.652 395.496 215.02 395.496 215.02C395.496 215.02 393.365 220.504 379.894 229.52C378.868 232.177 377.779 235.096 376.708 238.039C375.034 242.655 373.677 247.379 372.645 252.179Z" fill="black"/>
<path d="M413.729 228.501C413.729 228.501 388.936 252.906 368.881 249.265C368.881 249.265 345.181 243.437 335.698 230.322C335.698 230.322 341.898 224.855 345.909 219.76C345.909 219.76 358.67 240.157 375.808 229.595C392.947 219.033 395.496 212.472 395.496 212.472C395.496 212.472 421.385 208.098 413.729 228.501Z" fill="#3C3641"/>
<path opacity="0.1" d="M388.042 153.25C392.202 152.071 396.745 151.533 400.791 153.038C407.484 155.563 411.615 158.471 416.835 163.377C420.949 167.253 425.476 174.008 430.318 176.916C435.159 179.824 439.892 183.614 441.778 188.938C444.431 196.437 440.798 204.492 439.153 212.272C437.321 221.027 438.037 230.123 441.216 238.485C444.402 246.809 450.092 254.949 448.665 263.754C447.17 273.171 437.709 279.56 428.306 281.168C421.9 282.268 414.967 281.592 409.523 278.054C407.989 277.127 406.693 275.852 405.742 274.333C403.421 270.326 404.945 265.282 406.378 260.874C409.311 251.847 411.626 242.63 413.947 233.425C415.299 228.049 416.64 222.284 414.726 217.081C412.858 212.003 408.2 208.448 403.329 206.078C401.421 205.15 399.387 204.314 397.955 202.757C397.167 201.869 396.558 200.837 396.161 199.717C393.709 193.186 396.459 184.759 391.726 179.624C389.319 177.013 385.612 176.109 382.644 174.157C378.897 171.689 375.195 165.862 375.9 161.133C376.668 156.153 383.738 154.47 388.042 153.25Z" fill="black"/>
<path d="M388.775 152.884C392.935 151.704 397.479 151.166 401.524 152.672C408.217 155.197 412.348 158.105 417.568 163.011C421.682 166.886 426.209 173.642 431.051 176.55C435.893 179.458 440.626 183.248 442.511 188.572C445.164 196.071 441.531 204.126 439.887 211.905C438.055 220.661 438.77 229.757 441.949 238.119C445.135 246.442 450.825 254.583 449.398 263.388C447.903 272.805 438.443 279.193 429.04 280.802C422.634 281.901 415.7 281.226 410.257 277.688C408.722 276.76 407.427 275.486 406.475 273.967C404.154 269.96 405.679 264.916 407.111 260.508C410.045 251.48 412.36 242.263 414.68 233.058C416.033 227.683 417.373 221.918 415.46 216.714C413.592 211.636 408.933 208.081 404.063 205.711C402.155 204.784 400.12 203.948 398.688 202.391C397.9 201.502 397.291 200.47 396.894 199.351C394.442 192.819 397.192 184.393 392.459 179.257C390.053 176.647 386.345 175.742 383.377 173.79C379.63 171.323 375.928 165.495 376.633 160.767C377.395 155.792 384.466 154.103 388.775 152.884Z" fill="#FF6B57"/>
<path d="M512.434 389.806C512.434 389.806 520.032 364.045 511.008 345.073C507.173 337.143 506.017 328.184 507.713 319.541C508.549 315.445 509.76 311.435 511.328 307.559" stroke="#3C3641" stroke-width="2" stroke-miterlimit="10"/>
<path d="M505.724 295.572C505.724 298.732 511.454 307.886 511.454 307.886C511.454 307.886 517.184 298.726 517.184 295.572C517.184 294.054 516.581 292.597 515.506 291.524C514.432 290.45 512.974 289.847 511.454 289.847C509.935 289.847 508.477 290.45 507.403 291.524C506.328 292.597 505.724 294.054 505.724 295.572Z" fill="#FF6B57"/>
<path d="M496.264 313.061C497.983 315.711 507.77 320.291 507.77 320.291C507.77 320.291 507.593 309.494 505.874 306.844C505.017 305.645 503.73 304.822 502.281 304.547C500.833 304.272 499.334 304.565 498.096 305.366C496.858 306.166 495.977 307.413 495.636 308.846C495.295 310.28 495.52 311.789 496.264 313.061Z" fill="#FF6B57"/>
<path d="M496.677 342.955C499.502 344.375 510.263 343.396 510.263 343.396C510.263 343.396 504.653 334.168 501.834 332.748C500.488 332.14 498.959 332.076 497.566 332.567C496.173 333.059 495.024 334.069 494.359 335.386C493.693 336.704 493.563 338.228 493.995 339.639C494.427 341.05 495.388 342.24 496.677 342.961V342.955Z" fill="#FF6B57"/>
<path d="M502.086 365.505C504.63 367.382 515.402 368.23 515.402 368.23C515.402 368.23 511.437 358.189 508.893 356.311C507.669 355.495 506.178 355.181 504.728 355.433C503.278 355.686 501.982 356.487 501.106 357.668C500.231 358.85 499.845 360.323 500.027 361.782C500.21 363.241 500.947 364.574 502.086 365.505Z" fill="#FF6B57"/>
<path d="M519.78 320.909C517.488 323.108 506.951 325.392 506.951 325.392C506.951 325.392 509.535 314.91 511.804 312.712C512.332 312.14 512.971 311.682 513.682 311.365C514.394 311.049 515.162 310.88 515.94 310.87C516.719 310.86 517.491 311.009 518.21 311.307C518.93 311.605 519.58 312.047 520.123 312.604C520.666 313.162 521.089 313.824 521.367 314.551C521.645 315.278 521.772 316.053 521.74 316.831C521.707 317.608 521.517 318.37 521.18 319.072C520.843 319.773 520.367 320.398 519.78 320.909Z" fill="#FF6B57"/>
<path d="M525.774 347.352C522.949 348.771 512.188 347.793 512.188 347.793C512.188 347.793 517.798 338.564 520.617 337.145C521.291 336.767 522.036 336.531 522.804 336.448C523.573 336.366 524.351 336.44 525.09 336.666C525.829 336.892 526.515 337.265 527.106 337.763C527.698 338.26 528.182 338.872 528.53 339.562C528.878 340.252 529.083 341.005 529.133 341.775C529.182 342.546 529.075 343.319 528.817 344.047C528.56 344.776 528.157 345.445 527.634 346.013C527.111 346.582 526.478 347.039 525.774 347.357V347.352Z" fill="#FF6B57"/>
<path d="M528.071 373.857C525.527 375.735 514.755 376.582 514.755 376.582C514.755 376.582 518.72 366.541 521.264 364.663C522.488 363.847 523.98 363.533 525.429 363.786C526.879 364.039 528.176 364.839 529.051 366.021C529.926 367.203 530.312 368.676 530.13 370.135C529.948 371.594 529.211 372.926 528.071 373.857Z" fill="#FF6B57"/>
<path d="M301.301 463.305C300.251 462.45 299.485 461.296 299.106 459.997C298.82 458.68 299.381 457.106 300.642 456.625C302.051 456.087 303.558 457.06 304.699 458.05C305.839 459.041 307.151 460.163 308.647 459.951C307.878 459.255 307.303 458.371 306.978 457.387C306.652 456.403 306.588 455.351 306.79 454.335C306.855 453.914 307.033 453.518 307.306 453.19C308.091 452.354 309.506 452.715 310.446 453.373C313.426 455.468 314.256 459.51 314.274 463.151C314.572 461.84 314.319 460.472 314.331 459.144C314.342 457.815 314.709 456.281 315.844 455.583C316.547 455.205 317.337 455.018 318.136 455.039C319.476 454.987 320.966 455.125 321.883 456.104C323.029 457.317 322.725 459.361 321.734 460.684C320.743 462.006 319.241 462.859 317.855 463.786C316.743 464.446 315.796 465.349 315.082 466.425C314.998 466.575 314.928 466.732 314.875 466.895H306.481C304.6 465.937 302.858 464.73 301.301 463.305Z" fill="#F41E01"/>
<path d="M188.58 245.269C188.58 245.269 212.555 269.221 199.02 304.76C185.486 340.299 222.221 399.401 222.221 399.401C222.221 399.401 221.826 399.343 221.075 399.217C171.837 390.533 147.376 334.277 174.754 292.481C184.953 276.938 193.307 258.711 188.58 245.269Z" fill="#FF6B57"/>
<path opacity="0.1" d="M188.58 245.664C188.58 245.664 212.554 269.616 199.02 305.155C185.486 340.694 222.221 399.796 222.221 399.796C222.221 399.796 221.826 399.738 221.075 399.612C171.86 390.928 147.399 334.649 174.777 292.858C184.953 277.339 193.307 259.083 188.58 245.664Z" fill="black"/>
<path d="M188.58 245.269C188.58 245.269 202.114 274.625 188.58 298.577C175.046 322.529 186.288 389.743 222.221 399.401" stroke="#3C3641" stroke-miterlimit="10"/>
<path d="M145.886 342.137C145.886 342.137 173.241 337.786 175.733 362.276C178.226 386.766 228.335 390.178 228.335 390.178L227.395 390.802C186.025 417.937 146.47 408.085 152.435 372.054C154.647 358.652 154.469 345.199 145.886 342.137Z" fill="#FF6B57"/>
<path d="M145.886 342.137C145.886 342.137 167.121 346.791 165.368 366.083C163.615 385.375 196.906 408.497 228.335 390.178" stroke="#3C3641" stroke-miterlimit="10"/>
<path d="M169.952 391.06C169.952 391.06 191.497 386.743 197.244 381.019C202.991 375.294 228.845 365.236 231.716 372.432C234.586 379.628 270.496 403.975 246.098 408.28C221.7 412.585 188.643 414.004 181.464 411.142C174.284 408.28 169.952 391.06 169.952 391.06Z" fill="#3C3641"/>
<path opacity="0.2" d="M246.098 405.635C221.677 409.94 188.643 411.36 181.463 408.497C175.991 406.31 172.192 395.811 170.691 390.922L169.975 391.071C169.975 391.071 174.284 408.291 181.463 411.159C188.643 414.027 221.682 412.596 246.098 408.297C253.146 407.055 255.163 404.135 254.401 400.443C253.782 402.835 251.324 404.69 246.098 405.635Z" fill="black"/>
<path d="M529.527 388.346C529.527 388.346 516.686 387.951 512.818 385.198C508.95 382.444 493.067 379.158 492.11 383.572C491.153 387.986 472.817 405.532 487.331 405.635C501.845 405.738 521.012 403.379 524.874 401.055C528.736 398.731 529.527 388.346 529.527 388.346Z" fill="#3C3641"/>
<path opacity="0.2" d="M487.056 404.112C501.553 404.227 520.737 401.857 524.599 399.532C527.539 397.741 528.713 391.323 529.103 388.358H529.533C529.533 388.358 528.719 398.702 524.857 401.055C520.995 403.408 501.811 405.778 487.314 405.635C483.131 405.601 481.687 404.112 481.762 401.914C482.346 403.253 483.939 404.083 487.056 404.112Z" fill="black"/>
<defs>
<linearGradient id="paint0_linear" x1="381.979" y1="470.61" x2="381.979" y2="149.632" gradientUnits="userSpaceOnUse">
<stop stop-color="#808080" stop-opacity="0.25"/>
<stop offset="0.54" stop-color="#808080" stop-opacity="0.12"/>
<stop offset="1" stop-color="#808080" stop-opacity="0.1"/>
</linearGradient>
<linearGradient id="paint1_linear" x1="-232121" y1="28156.8" x2="-136515" y2="-110199" gradientUnits="userSpaceOnUse">
<stop stop-color="#808080" stop-opacity="0.25"/>
<stop offset="0.54" stop-color="#808080" stop-opacity="0.12"/>
<stop offset="1" stop-color="#808080" stop-opacity="0.1"/>
</linearGradient>
</defs>
</svg>
